<?xml version="1.0" encoding="UTF-8" standalone="no"?>
<!-- Generator: Adobe Illustrator 16.0.0, SVG Export Plug-In . SVG Version: 6.00 Build 0)  -->

<svg
   xmlns:dc="http://purl.org/dc/elements/1.1/"
   xmlns:cc="http://creativecommons.org/ns#"
   xmlns:rdf="http://www.w3.org/1999/02/22-rdf-syntax-ns#"
   xmlns:svg="http://www.w3.org/2000/svg"
   xmlns="http://www.w3.org/2000/svg"
   xmlns:sodipodi="http://sodipodi.sourceforge.net/DTD/sodipodi-0.dtd"
   xmlns:inkscape="http://www.inkscape.org/namespaces/inkscape"
   version="1.1"
   id="Layer_1"
   x="0px"
   y="0px"
   width="48"
   height="48"
   viewBox="7.727 7.821 47.999999 48"
   enable-background="new 7.727 7.821 46.546 46.452"
   xml:space="preserve"
   inkscape:version="0.91 r13725"
   sodipodi:docname="nautilus-lxsplit.svg"><metadata
     id="metadata11"><rdf:RDF><cc:Work
         rdf:about=""><dc:format>image/svg+xml</dc:format><dc:type
           rdf:resource="http://purl.org/dc/dcmitype/StillImage" /><dc:title /></cc:Work></rdf:RDF></metadata><defs
     id="defs9"><linearGradient
       id="linearGradient2193"><stop
         style="stop-color:#7c2f03;stop-opacity:1"
         offset="0"
         id="stop2195" /><stop
         style="stop-color:#ff9730;stop-opacity:1"
         offset="1"
         id="stop2197" /></linearGradient><filter
       style="color-interpolation-filters:sRGB;"
       inkscape:label="Drop Shadow"
       id="filter4644"><feFlood
         flood-opacity="0.498039"
         flood-color="rgb(0,0,0)"
         result="flood"
         id="feFlood4646" /><feComposite
         in="flood"
         in2="SourceGraphic"
         operator="in"
         result="composite1"
         id="feComposite4648" /><feGaussianBlur
         in="composite1"
         stdDeviation="3"
         result="blur"
         id="feGaussianBlur4650" /><feOffset
         dx="4.1"
         dy="6"
         result="offset"
         id="feOffset4652" /><feComposite
         in="SourceGraphic"
         in2="offset"
         operator="over"
         result="composite2"
         id="feComposite4654" /></filter><filter
       style="color-interpolation-filters:sRGB;"
       inkscape:label="Drop Shadow"
       id="filter4668"><feFlood
         flood-opacity="0.498039"
         flood-color="rgb(0,0,0)"
         result="flood"
         id="feFlood4670" /><feComposite
         in="flood"
         in2="SourceGraphic"
         operator="in"
         result="composite1"
         id="feComposite4672" /><feGaussianBlur
         in="composite1"
         stdDeviation="3"
         result="blur"
         id="feGaussianBlur4674" /><feOffset
         dx="3"
         dy="3"
         result="offset"
         id="feOffset4676" /><feComposite
         in="SourceGraphic"
         in2="offset"
         operator="over"
         result="composite2"
         id="feComposite4678" /></filter><filter
       style="color-interpolation-filters:sRGB;"
       inkscape:label="Drop Shadow"
       id="filter3371"><feFlood
         flood-opacity="0.498039"
         flood-color="rgb(0,0,0)"
         result="flood"
         id="feFlood3373" /><feComposite
         in="flood"
         in2="SourceGraphic"
         operator="in"
         result="composite1"
         id="feComposite3375" /><feGaussianBlur
         in="composite1"
         stdDeviation="3"
         result="blur"
         id="feGaussianBlur3377" /><feOffset
         dx="0"
         dy="0"
         result="offset"
         id="feOffset3379" /><feComposite
         in="SourceGraphic"
         in2="offset"
         operator="over"
         result="composite2"
         id="feComposite3381" /></filter><filter
       style="color-interpolation-filters:sRGB"
       inkscape:label="Drop Shadow"
       id="filter5326"><feFlood
         flood-opacity="0.498039"
         flood-color="rgb(0,0,0)"
         result="flood"
         id="feFlood5328" /><feComposite
         in="flood"
         in2="SourceGraphic"
         operator="in"
         result="composite1"
         id="feComposite5330" /><feGaussianBlur
         in="composite1"
         stdDeviation="3"
         result="blur"
         id="feGaussianBlur5332" /><feOffset
         dx="0"
         dy="-6.38378e-16"
         result="offset"
         id="feOffset5334" /><feComposite
         in="SourceGraphic"
         in2="offset"
         operator="over"
         result="composite2"
         id="feComposite5336" /></filter><filter
       style="color-interpolation-filters:sRGB"
       inkscape:label="Drop Shadow"
       id="filter5302"><feFlood
         flood-opacity="0.498039"
         flood-color="rgb(0,0,0)"
         result="flood"
         id="feFlood5304" /><feComposite
         in="flood"
         in2="SourceGraphic"
         operator="in"
         result="composite1"
         id="feComposite5306" /><feGaussianBlur
         in="composite1"
         stdDeviation="3"
         result="blur"
         id="feGaussianBlur5308" /><feOffset
         dx="0"
         dy="-6.38378e-16"
         result="offset"
         id="feOffset5310" /><feComposite
         in="SourceGraphic"
         in2="offset"
         operator="over"
         result="composite2"
         id="feComposite5312" /></filter><filter
       style="color-interpolation-filters:sRGB"
       inkscape:label="Drop Shadow"
       id="filter5117"><feFlood
         flood-opacity="0.498039"
         flood-color="rgb(0,0,0)"
         result="flood"
         id="feFlood5119" /><feComposite
         in="flood"
         in2="SourceGraphic"
         operator="in"
         result="composite1"
         id="feComposite5121" /><feGaussianBlur
         in="composite1"
         stdDeviation="3"
         result="blur"
         id="feGaussianBlur5123" /><feOffset
         dx="-1.38778e-16"
         dy="-6.38378e-16"
         result="offset"
         id="feOffset5125" /><feComposite
         in="SourceGraphic"
         in2="offset"
         operator="over"
         result="composite2"
         id="feComposite5127" /></filter><filter
       style="color-interpolation-filters:sRGB"
       inkscape:label="Drop Shadow"
       id="filter4120"><feFlood
         flood-opacity="0.498039"
         flood-color="rgb(0,0,0)"
         result="flood"
         id="feFlood4122" /><feComposite
         in="flood"
         in2="SourceGraphic"
         operator="in"
         result="composite1"
         id="feComposite4124" /><feGaussianBlur
         in="composite1"
         stdDeviation="3"
         result="blur"
         id="feGaussianBlur4126" /><feOffset
         dx="2"
         dy="2"
         result="offset"
         id="feOffset4128" /><feComposite
         in="SourceGraphic"
         in2="offset"
         operator="over"
         result="composite2"
         id="feComposite4130" /></filter></defs><sodipodi:namedview
     pagecolor="#ffffff"
     bordercolor="#666666"
     borderopacity="1"
     objecttolerance="10"
     gridtolerance="10"
     guidetolerance="10"
     inkscape:pageopacity="0"
     inkscape:pageshadow="2"
     inkscape:window-width="1920"
     inkscape:window-height="1021"
     id="namedview7"
     showgrid="false"
     inkscape:zoom="10.161027"
     inkscape:cx="31.563225"
     inkscape:cy="13.142552"
     inkscape:window-x="0"
     inkscape:window-y="27"
     inkscape:window-maximized="1"
     inkscape:current-layer="Layer_1" /><g
     id="g5344"
     transform="matrix(0.0959205,0,0,0.0959205,63.860265,-28.095082)"><path
       sodipodi:nodetypes="csscscccccccc"
       style="fill:#526c78;fill-opacity:1;filter:url(#filter5326)"
       d="m -552.11434,500.0681 c 0,0 0.62925,-78.63671 2.59184,-82.88351 3.09418,-6.69542 6.82998,-10.57482 13.19183,-13.69891 l 5.7041,-2.80109 75,-0.32788 c 41.25,-0.18034 78.825,-0.0217 83.5,0.35242 l 8.50031,0.68031 23.79555,23.64757 23.79571,23.64799 24.25,20 24.25,0 0,31.3831 z"
       id="path4156"
       inkscape:connector-curvature="0" /><path
       style="fill:#778f9a;fill-opacity:1;filter:url(#filter5302)"
       d="m -316.03492,448.68528 -47.5918,51.38282 22,0 210.47852,0 c 0,0 2.94105,-37.31091 -3.54492,-43.79688 -7.03459,-7.03465 -2.33966,-7.5864 -72.23688,-7.58622 z"
       id="path5129"
       inkscape:connector-curvature="0"
       sodipodi:nodetypes="ccccssc" /><path
       style="fill:#cdd6da;fill-opacity:1;stroke:none;filter:url(#filter5117)"
       d="m -537.04128,490.1493 404.08469,0 c 13.2069,0 23.83916,16.81814 23.83916,37.70884 l 0,259.88533 c 0,20.89069 -10.63226,37.70884 -23.83916,37.70884 l -404.08469,0 c -13.20689,0 -23.83915,-16.81815 -23.83915,-37.70884 l 0,-259.88533 c 0,-20.8907 10.63226,-37.70884 23.83915,-37.70884 z"
       id="rect5006"
       inkscape:connector-curvature="0"
       sodipodi:nodetypes="sssssssss" /><path
       style="fill:#ffffff;fill-opacity:1;stroke:none;filter:url(#filter4120)"
       d="m -341.12657,567.4144 c -51.30141,0 -73.62711,0.32812 -75.3418,1.10937 -3.47083,1.58143 -4.65873,4.94789 -4.65235,13.1875 0.007,8.48463 1.40199,14.25636 3.78321,15.64454 2.36609,1.37937 149.65785,1.42471 152.23242,0.0469 2.54321,-1.36108 3.96592,-6.98012 3.97266,-15.69141 0.006,-8.23962 -1.17956,-11.60607 -4.6504,-13.1875 -1.71468,-0.78126 -24.04233,-1.10937 -75.34374,-1.10937 z"
       id="rect3968"
       inkscape:connector-curvature="0" /></g><g
     transform="matrix(-0.17787612,-0.17877831,0.17787612,-0.17877831,-131.86605,232.96264)"
     id="layer1"><g
       transform="matrix(4.2610846,-1.2351263,1.2351263,4.2610846,-1337.7659,-2994.9736)"
       id="g4593"><path
         inkscape:connector-curvature="0"
         d="m 59.731665,956.40057 c -0.609784,-1.39286 -2.303491,-1.83556 -3.698902,-1.71226 l -8.742604,0.69566 c -1.935736,-1.91425 -4.307466,-2.2049 -4.132136,-2.81651 0.137044,-0.47806 0.545993,-0.24745 0.837105,-1.51102 0.279511,-1.21323 -0.714709,-2.45509 -1.916471,-2.71488 -1.177727,-0.34526 -2.659814,0.20827 -3.027677,1.45195 -0.447882,1.23061 0.273869,2.69969 1.499535,3.14003 1.400938,0.6374 4.246607,0.49379 4.837778,3.02096 -1.384807,1.41129 -2.993148,0.95525 -4.422137,0.4551 -1.186382,-0.41524 -2.734347,-0.48487 -3.649629,0.53589 -0.881717,0.97694 -0.800158,2.7506 0.376675,3.46434 1.15277,0.8421 3.093263,0.7518 3.824279,-0.64172 0.563472,-1.07414 -0.09119,-1.84242 0.337995,-2.16796 0.32384,-0.24563 1.759155,0.36194 4.749906,-0.0686 l 7.684693,5.46398 c 0.993719,0.61119 2.316503,0.97947 3.577814,0.19164 l -7.902726,-5.8909 9.766502,-0.89574 z m -17.075242,-6.87194 c 1.045256,1.05155 0.403306,2.90727 -0.994512,2.90157 -1.286163,0.072 -2.454591,-1.49318 -1.718425,-2.65375 0.516476,-0.97737 1.997384,-0.96769 2.712937,-0.24782 z m -2.155235,7.72245 c 1.161058,0.85179 0.310724,2.98566 -1.0944,2.9024 -0.962958,0.053 -2.089598,-0.7434 -1.882399,-1.80058 0.188897,-1.30347 1.988129,-2.01427 2.976799,-1.10182 z"
         id="path4599"
         style="marker-start:none" /></g></g></svg>